# xmcd
#
# Track frame offsets:
#	182
#	11322
#	32297
#	65395
#	82305
#	95537
#	103710
#	124485
#	141300
#	159765
#	184420
#	197795
#	227170
#	241720
#	262420
#	274207
#	288575
#
# Disc length: 4235
#
# Revision: 5
# Processed by: cddbd v1.5.1PL0 Copyright (c) Steve Scherf et al.
# Submitted via: dBpowerAMP V4.0
# Normalized: r3:TSWAP
#
DISCID=f8108911
DTITLE=Various Artist - 50 Great Moments in Opera Disc No. 1
DYEAR=1990
DGENRE=Opera
TTITLE0=Kiri Te Kanawa - O Mio Bambino Caro
TTITLE1=Luciano Pavarotti - Che Gelida Manina
TTITLE2=Leontyne Price - O Patria Mia
TTITLE3=Cesare Siepi - Non Piu Andrai
TTITLE4=Hermann Prey - Papageno's Aria (Act 1)
TTITLE5=Luciano Pavarotti - Questa o Quella
TTITLE6=Dimitri Hvorostovsky - Di Provenza il Mar
TTITLE7=Joan Sutherland - Chacun le Sait
TTITLE8=Luciano Pavarotti - Vesti la Giubba
TTITLE9=Renata Tebaldi - Mi Chiamano Mimi
TTITLE10=Luciano Pavarotti - Nessun Dorma
TTITLE11=Lily Pons - The Bell Song
TTITLE12=Ruggero Raimondi - La ci Darem la Mano
TTITLE13=Joan Sutherland - The Jewel Song
TTITLE14=Franco Corelli - La Donna e Mobile
TTITLE15=Frederica von Stade - Vio Che Sapeta
TTITLE16=Luciano Pavarotti - A te o Cara
EXTD=
EXTT0=
EXTT1=
EXTT2=
EXTT3=
EXTT4=
EXTT5=
EXTT6=
EXTT7=
EXTT8=
EXTT9=
EXTT10=
EXTT11=
EXTT12=
EXTT13=
EXTT14=
EXTT15=
EXTT16=
PLAYORDER=
